<?xml version="1.0" encoding="utf-8"?>
<!-- Generator: Adobe Illustrator 28.1.0, SVG Export Plug-In . SVG Version: 6.00 Build 0)  -->
<svg version="1.1" id="Calque_1" xmlns="http://www.w3.org/2000/svg" xmlns:xlink="http://www.w3.org/1999/xlink" x="0px" y="0px"
	 viewBox="0 0 80 80" style="enable-background:new 0 0 80 80;" xml:space="preserve">
<style type="text/css">
	.st0{fill:#AD2E3E;}
	.st1{fill:#CB7780;}
	.st2{fill:#E2B1B7;}
	.st3{fill:#999798;}
	.st4{fill:#696566;}
	.st5{fill:#EFE5E6;}
	.st6{fill:#231F20;}
	.st7{fill:#AE2D3D;}
	.st8{fill:#AC2D3E;}
	.st9{fill:#252122;}
	.st10{fill:#252021;}
	.st11{fill:#232021;}
	.st12{fill:#AE2F3F;}
	.st13{fill:#AD2E3D;}
	.st14{fill:#8C5459;}
	.st15{fill:#AF515D;}
	.st16{fill:#654446;}
	.st17{fill:#54393B;}
	.st18{fill:#BA4755;}
</style>
<g>
	<g>
		<path class="st0" d="M7.9,79.8c-2.6,0-5.3,0.1-7.9,0.1c0-0.1,0-0.3,0-0.4c0.1-0.3,0.2-0.7,0.2-1c0-2.2,0-4.4,0-6.7
			c0-0.1,0-0.2,0-0.2c1.6-1.6,3.2-3.1,4.8-4.7c0.1,0.3,0.2,0.7,0.2,1c0,2.2,0,4.4,0,6.5c0.3,0.1,0.6,0.2,1,0.2c1.9,0,3.7,0,5.6,0
			c0.3,0,0.7,0.2,1,0.2c-1.6,1.6-3.1,3.2-4.7,4.8C8.1,79.7,8,79.7,7.9,79.8L7.9,79.8z"/>
		<path class="st1" d="M0,64v-8.1c0.1,0,0.1,0,0.2,0c0,2.6,0,5.3,0,7.9c0,0.1-0.1,0.1-0.1,0.2C0.1,63.9,0.1,63.9,0,64z"/>
		<path class="st2" d="M79.8,0c-0.1,0.1-0.1,0.1-0.2,0.2c-2.6,0-5.3,0-7.9,0c0-0.1,0-0.1,0-0.2"/>
		<path class="st3" d="M71.6,0c0,0.1,0,0.1,0,0.2l0,0.1c-2.6,0-5.2,0-7.7,0c-0.1,0-0.1,0-0.2-0.1c0-0.1,0-0.1,0-0.2L71.6,0L71.6,0z"
			/>
		<path class="st2" d="M63.7,0c0,0.1,0,0.1,0,0.2v0c-2.6,0-5.3,0-7.9-0.1c0-0.1,0-0.1,0-0.2L63.7,0L63.7,0z"/>
		<path class="st3" d="M55.7,0c0,0.1,0,0.1,0,0.2l0,0.1c-2.6,0-5.2,0-7.7,0c-0.1,0-0.1,0-0.2-0.1c0-0.1,0-0.1,0-0.2H55.7L55.7,0z"/>
		<path class="st2" d="M47.7,0c0,0.1,0,0.1,0,0.2v0c-2.6,0-5.2,0-7.7,0c-0.1,0-0.1,0-0.2-0.1c0-0.1,0-0.1,0-0.2H47.7z"/>
		<path class="st1" d="M0,47.9v-7.9c0.1,0,0.1,0,0.2,0c0,2.6,0,5.1,0,7.7c0,0.1,0,0.1-0.1,0.2C0.1,47.9,0.1,47.9,0,47.9z"/>
		<path class="st4" d="M0,47.9c0.1,0,0.1,0,0.2,0c0,2.6,0,5.2,0.1,7.8c0,0.1,0,0.2,0,0.2c-0.1,0-0.1,0-0.2,0V47.9L0,47.9z"/>
		<path class="st3" d="M39.8,0c0,0.1,0,0.1,0,0.2l0,0.1c-2.6,0-5.2,0-7.8,0c-0.1,0-0.1,0-0.2,0c0-0.1,0-0.1,0-0.2
			C34.5,0,37.2,0,39.8,0L39.8,0z"/>
		<path class="st1" d="M0.2,71.7c0,2.2,0,4.4,0,6.7c0,0.3-0.1,0.7-0.2,1c0-2.6,0-5.2,0-7.7C0.1,71.7,0.1,71.7,0.2,71.7L0.2,71.7z"/>
		<path class="st4" d="M0.2,71.7c-0.1,0-0.1,0-0.2,0V64c0.1,0,0.1,0,0.2,0c0,2.5,0.1,5,0.1,7.6C0.2,71.6,0.2,71.7,0.2,71.7L0.2,71.7
			z"/>
		<path class="st4" d="M0.2,40c-0.1,0-0.1,0-0.2,0c0-2.6,0-5.2,0-7.7c0.1,0,0.1,0,0.2-0.1c0,2.5,0.1,5.1,0.1,7.6
			C0.2,39.8,0.2,39.9,0.2,40L0.2,40z"/>
		<path class="st5" d="M79.6,0.2c0.1-0.1,0.1-0.1,0.2-0.2c0.1,0,0.1,0,0.2,0c-0.1,0.3-0.2,0.7-0.4,1C79.6,0.7,79.6,0.5,79.6,0.2z"/>
		<path class="st6" d="M79.6,39.9c0,2.6,0,5.2,0,7.7c-2.6,0-5.3,0-7.9,0c0-2.6,0-5.1,0-7.7C74.3,40,76.9,39.9,79.6,39.9L79.6,39.9z"
			/>
		<path class="st7" d="M79.6,16.1c0,2.6,0,5.2,0,7.7c-2.7,0-5.3,0-8,0c0-2.6,0-5.1,0-7.7C74.3,16.1,76.9,16.1,79.6,16.1L79.6,16.1z"
			/>
		<path class="st7" d="M79.6,0.2c0,0.3,0,0.5,0.1,0.8c0,2.3,0,4.6-0.1,6.9c-2.7,0-5.3,0-8,0c0-2.6,0-5.1,0-7.7l0-0.1
			C74.3,0.2,76.9,0.2,79.6,0.2L79.6,0.2z"/>
		<path class="st6" d="M79.6,24c0,2.6,0,5.2,0,7.7c-2.6,0-5.3,0-7.9,0c0-2.6,0-5.1,0-7.7C74.3,24.1,76.9,24,79.6,24L79.6,24z"/>
		<path class="st7" d="M79.6,32c0,2.6,0,5.2,0,7.7c-2.7,0-5.3,0-8,0c0-2.6,0-5.1,0-7.7C74.3,32,76.9,32,79.6,32L79.6,32z"/>
		<path class="st6" d="M79.6,8.2c0,2.6,0,5.2,0,7.7c-2.6,0-5.2,0-7.9,0c0-2.6,0-5.1,0-7.7C74.3,8.2,76.9,8.2,79.6,8.2z"/>
		<path class="st8" d="M79.4,47.9c-1.8,1.8-3.6,3.5-5.3,5.3c-2.6,0-5.3,0-7.9,0c0.3-0.4,0.7-0.7,1-1.1c1.4-1.4,2.7-2.8,4.1-4.2
			C74,47.9,76.7,47.9,79.4,47.9L79.4,47.9z"/>
		<path class="st9" d="M66.1,53.2c2.6,0,5.3,0,7.9,0c-1.6,1.6-3.1,3.1-4.7,4.7c-0.2,0.2-0.4,0.4-0.6,0.6c-2.5,0-5,0-7.5-0.1
			c0-0.1,0-0.2,0-0.4L66.1,53.2L66.1,53.2L66.1,53.2z"/>
		<path class="st0" d="M61.2,58.4c2.5,0,5,0,7.5,0.1c-1.8,1.8-3.6,3.5-5.5,5.3c-2.7,0-5.3,0-8,0c1.8-1.8,3.6-3.5,5.3-5.3
			c0.1,0,0.1,0,0.2,0C61,58.5,61.1,58.5,61.2,58.4L61.2,58.4z"/>
		<path class="st10" d="M55.3,63.8c2.7,0,5.3,0,8,0c-1.7,1.8-3.5,3.5-5.2,5.3c-2.6,0-5.3,0-7.9,0c0.3-0.3,0.5-0.6,0.8-0.9
			C52.4,66.7,53.9,65.2,55.3,63.8L55.3,63.8L55.3,63.8z"/>
		<path class="st11" d="M8.2,79.6c1.6-1.6,3.1-3.2,4.7-4.8c0.1-0.1,0.2-0.2,0.4-0.3c2.6,0,5.2,0,7.8,0c-1.6,1.7-3.3,3.4-4.9,5
			c-0.1,0.1-0.2,0.1-0.2,0.2c-2.6,0-5.1,0-7.7,0C8.2,79.7,8.2,79.7,8.2,79.6L8.2,79.6z"/>
		<path class="st11" d="M31.6,79.8c-2.6,0-5.1,0-7.7,0c0-0.1,0-0.1,0-0.2c1.6-1.6,3.2-3.2,4.9-4.9c0.1-0.1,0.2-0.1,0.2-0.2
			c2.6,0,5.2,0,7.8,0c-1.6,1.7-3.3,3.4-4.9,5C31.8,79.7,31.7,79.7,31.6,79.8L31.6,79.8z"/>
		<path class="st11" d="M52.6,74.6c-1.6,1.6-3.1,3.2-4.8,4.7c-0.3,0.3-0.9,0.5-1.3,0.5c-2.3,0-4.6,0-6.9,0c0-0.1,0-0.1,0-0.2
			c0.2-0.3,0.5-0.6,0.8-0.8c1.4-1.4,2.7-2.7,4.1-4c0.1-0.1,0.2-0.1,0.2-0.2c0.2,0,0.4,0,0.6,0h7C52.4,74.5,52.5,74.6,52.6,74.6
			L52.6,74.6z"/>
		<path class="st12" d="M52.6,74.6c-0.1,0-0.2,0-0.3,0c-0.7-0.1-1.3-0.2-2-0.1c-1.7,0-3.3,0.1-5,0.1c-0.2,0-0.4,0-0.6,0
			c0,0,0-0.1,0-0.1c1.7-1.7,3.4-3.3,5.1-4.9c0.1-0.1,0.3-0.1,0.4-0.2c2.2,0,4.3,0,6.5,0c0.3,0,0.7,0.1,1.1,0.2c-0.5,0.5-1,1-1.5,1.5
			c-0.4,0.3-0.7,0.7-1.1,1.1C54.3,72.9,53.5,73.7,52.6,74.6L52.6,74.6z"/>
		<path class="st13" d="M44.5,74.8c-1.4,1.4-2.7,2.7-4.1,4c-0.3,0.3-0.5,0.5-0.8,0.8c-0.1,0.1-0.2,0.1-0.2,0.2c-2.5,0-5,0-7.5,0
			c0-0.1,0-0.1,0-0.2c1.6-1.7,3.3-3.4,4.9-5h0.1h0.1c2.2,0,4.3,0,6.5,0C43.8,74.6,44.1,74.7,44.5,74.8L44.5,74.8z"/>
		<path class="st7" d="M28.8,74.8c-1.6,1.6-3.2,3.2-4.9,4.9c-0.1,0.1-0.1,0.1-0.2,0.2c-2.5,0-5,0-7.5,0c0-0.1,0-0.1,0-0.2
			c1.6-1.7,3.3-3.4,4.9-5c0.1,0,0.1,0,0.2,0c2.2,0,4.3,0,6.5,0C28,74.6,28.4,74.7,28.8,74.8L28.8,74.8z"/>
		<path class="st14" d="M79.4,47.9c-2.7,0-5.4,0-8.2,0c-2.6,0-5.2,0-7.7,0c-2.7,0-5.4,0-8,0c-2.6,0-5.3,0-7.9,0c-2.2,0-4.4,0-6.6,0
			c-0.5,0-0.9,0.1-1.4,0.2c-0.3-0.1-0.7-0.2-1-0.2c-2.2,0-4.4,0-6.7,0v-7.7l0-0.4c0.1,0,0.1,0,0.2,0c2.6,0,5.1,0,7.7,0
			c0.1,0,0.2,0,0.2,0c2.6,0,5.2,0,7.8,0c0.1,0,0.1,0,0.2,0c2.6,0,5.1,0,7.7,0c2.7,0,5.3,0,8,0l0.2,0c2.6,0,5.1,0,7.7,0
			c2.7,0,5.3,0,8,0c0,0.1,0,0.1,0,0.2c-2.6,0-5.3,0-7.9,0c-2.6,0-5.2,0-7.8,0c-0.1,0-0.1,0-0.2,0c-2.6,0-5.2,0-7.7,0
			c-0.1,0-0.1,0-0.2,0c-2.6,0-5.2,0-7.8,0c-0.1,0-0.1,0-0.2,0c-2.6,0-5.1,0-7.7,0h-0.2c-2.3,0-4.5,0-6.8,0c-0.7,0-1,0.1-1,0.9
			c0,2,0,4,0,6c0,0.8,0.3,0.9,1,0.9c2.3,0,4.5,0,6.8,0c0.1,0,0.1,0,0.2,0c2.6,0,5.2,0,7.7,0c0.1,0,0.1,0,0.2,0c2.6,0,5.2,0,7.8,0
			c0.1,0,0.1,0,0.2,0c2.6,0,5.2,0,7.7,0c0.1,0,0.1,0,0.2,0c2.6,0,5.2,0,7.8,0c2.6,0,5.3,0,7.9,0C79.5,47.8,79.5,47.9,79.4,47.9
			L79.4,47.9z"/>
		<path class="st14" d="M79.6,24c-2.6,0-5.3,0-7.9,0c-2.6,0-5.2,0-7.8,0c-0.1,0-0.1,0-0.2,0c-2.6,0-5.1,0-7.7,0h-0.2
			c-2.6,0-5.2,0-7.8,0c-0.1,0-0.1,0-0.2,0c-2.6,0-5.1,0-7.7,0c-0.1,0-0.1,0-0.2,0c-2.3,0-4.5,0-6.8,0c-0.7,0-1,0.1-1,0.9
			c0,2,0,4,0,6c0,0.8,0.3,0.9,1,0.9c2.3,0,4.5,0,6.8,0c0.1,0,0.1,0,0.2,0l0,0c0,0.1,0,0.1,0,0.2v0c-0.1,0-0.2,0-0.2,0
			c-2.6,0-5.1,0-7.7,0c-0.1,0-0.2,0-0.2,0h0c0-2.4,0-4.8,0-7.1c0-0.2-0.1-0.4-0.2-0.6c0.1-0.1,0.2-0.3,0.2-0.4h0.2
			c2.6,0,5.1,0,7.7,0c0.1,0,0.2,0,0.2,0c2.6,0,5.2,0,7.7,0c0.1,0,0.1,0,0.2,0c2.6,0,5.1,0,7.7,0c2.7,0,5.3,0,8,0c0.1,0,0.1,0,0.2,0
			c2.6,0,5.1,0,7.7,0c2.7,0,5.3,0,8,0C79.6,23.9,79.6,24,79.6,24z"/>
		<path class="st14" d="M79.6,8.2c-2.6,0-5.3,0-7.9,0c-2.6,0-5.2,0-7.8,0c-0.1,0-0.1,0-0.2,0c-2.6,0-5.1,0-7.7,0c-0.1,0-0.1,0-0.2,0
			c-2.6,0-5.2,0-7.8,0c-0.1,0-0.1,0-0.2,0c-2.6,0-5.1,0-7.7,0c-0.1,0-0.1,0-0.2,0c-2.3,0-4.6,0-6.9,0C32.2,8.1,32,8.4,32,9
			c0,2.3,0,4.6,0,6.9c-0.1,0-0.1,0-0.2,0c0-2.2,0-4.4,0-6.5c0-0.3-0.1-0.7-0.2-1c0.1-0.1,0.2-0.3,0.2-0.4c0.1,0,0.1,0,0.2,0
			c2.6,0,5.1,0,7.7,0c0.1,0,0.2,0,0.2,0c2.6,0,5.2,0,7.7,0c0.1,0,0.1,0,0.2,0c2.6,0,5.1,0,7.7,0c2.7,0,5.3,0,8,0c0.1,0,0.1,0,0.2,0
			c2.6,0,5.1,0,7.7,0c2.7,0,5.3,0,8,0C79.6,8,79.6,8.1,79.6,8.2z"/>
		<path class="st15" d="M57.8,69.5c-0.3-0.1-0.7-0.2-1.1-0.2c-2.2,0-4.3,0-6.5,0c0-0.1,0-0.1,0-0.2c2.6,0,5.3,0,7.9,0
			C58,69.2,57.9,69.3,57.8,69.5L57.8,69.5z"/>
		<path class="st4" d="M79.6,32c-2.7,0-5.3,0-8,0h0c0-0.1,0-0.1,0-0.2l0.1,0c2.6,0,5.3,0,7.9,0C79.6,31.9,79.6,31.9,79.6,32L79.6,32
			z"/>
		<path class="st16" d="M71.7,15.9c2.6,0,5.2,0,7.9,0c0,0.1,0,0.1,0,0.2c-2.7,0-5.3,0-8,0h0C71.6,16,71.6,16,71.7,15.9L71.7,15.9
			L71.7,15.9z"/>
		<path class="st4" d="M39.4,79.8c0.1-0.1,0.2-0.1,0.2-0.2c0,0.1,0,0.1,0,0.2C39.5,79.8,39.5,79.8,39.4,79.8z"/>
		<path class="st1" d="M31.8,79.6c0,0.1,0,0.1,0,0.2c-0.1,0-0.2,0-0.3,0C31.7,79.7,31.7,79.7,31.8,79.6z"/>
		<path class="st4" d="M23.7,79.8c0.1-0.1,0.1-0.1,0.2-0.2c0,0.1,0,0.1,0,0.2C23.8,79.8,23.8,79.8,23.7,79.8z"/>
		<path class="st1" d="M16.1,79.6c0,0.1,0,0.1,0,0.2c-0.1,0-0.2,0-0.3,0C16,79.7,16,79.7,16.1,79.6z"/>
		<path class="st4" d="M8.2,79.6c0,0.1,0.1,0.1,0,0.2c-0.1,0-0.2,0-0.2,0C8,79.7,8.1,79.7,8.2,79.6L8.2,79.6z"/>
		<path class="st12" d="M31.9,7.9c-0.1,0.1-0.2,0.3-0.2,0.4c-1.6,1.6-3.1,3.1-4.7,4.7c-0.1-0.3-0.2-0.6-0.2-0.9c0-1.4,0-2.7,0-4.1
			c0-0.7-0.1-1.4-0.2-2.1c0-0.1,0-0.2,0-0.3c1.8-1.8,3.5-3.6,5.3-5.4c0.1,0,0.1,0,0.2,0c0,0.1,0,0.2,0,0.3c-0.1,0.3-0.2,0.6-0.2,0.9
			C31.9,3.6,31.9,5.8,31.9,7.9L31.9,7.9z"/>
		<path class="st12" d="M5.3,27c1.8-1.8,3.5-3.6,5.3-5.4c0,0,0.1,0.1,0,0.1c0,2.5,0,5.1,0,7.6c0,0.1,0,0.2,0,0.3
			c-1.6,1.6-3.2,3.2-4.9,4.8c-0.1-0.3-0.2-0.6-0.2-0.9c0-1.5,0-2.9,0-4.4c0-0.6-0.1-1.2-0.2-1.8C5.4,27.2,5.3,27.1,5.3,27L5.3,27z"
			/>
		<path class="st10" d="M10.7,21.8c0-0.1,0-0.1,0-0.1c1.8-1.8,3.5-3.6,5.3-5.3c0,0.1,0,0.1,0,0.2c0,2.6,0,5.1,0,7.7
			c-0.3,0.2-0.6,0.5-0.8,0.7c-1.4,1.4-2.8,2.8-4.2,4.2c0-1.6,0-3.2,0-4.8C10.8,23.5,10.7,22.6,10.7,21.8L10.7,21.8z"/>
		<path class="st0" d="M15.9,16.5c0-0.1,0-0.1,0-0.2c1.8-1.8,3.5-3.5,5.3-5.3c0,0.1,0,0.1,0.1,0.2c0,2.5,0,4.9,0,7.4
			c0,0.1,0,0.3,0,0.4c-1.6,1.6-3.2,3.1-4.9,4.7c-0.1-0.3-0.2-0.6-0.2-0.9c0-1.6,0-3.2,0-4.7C16.1,17.5,16,17,15.9,16.5L15.9,16.5z"
			/>
		<path class="st6" d="M21.3,11.2c0-0.1,0-0.1-0.1-0.2c1.8-1.8,3.6-3.6,5.3-5.4c0,0.1,0,0.2,0,0.3c0,2.4,0,4.9,0,7.3
			c0,0.1,0,0.1,0,0.2c-1.7,1.6-3.4,3.3-5.1,4.9c0-1.6,0-3.3,0-4.9C21.4,12.7,21.3,11.9,21.3,11.2L21.3,11.2z"/>
		<path class="st6" d="M5.3,27c0,0.1,0,0.2,0,0.3c0,2.2,0,4.4,0,6.6c0,0.4-0.1,0.8-0.2,1.2c-1.6,1.6-3.2,3.1-4.8,4.7
			c0-2.5-0.1-5.1-0.1-7.6c1.5-1.6,3.1-3.2,4.6-4.8C4.9,27.2,5.1,27.1,5.3,27L5.3,27z"/>
		<path class="st6" d="M0.2,71.5c0-2.5-0.1-5-0.1-7.6c0-0.1,0.1-0.1,0.1-0.2c1.6-1.6,3.2-3.2,4.9-4.9c0.1,0.2,0.2,0.3,0.2,0.5
			c0,2.2,0,4.4,0,6.7c0,0.2-0.1,0.5-0.2,0.7C3.5,68.4,1.8,70,0.2,71.5z"/>
		<path class="st14" d="M5.1,66.8c0.1-0.2,0.2-0.5,0.2-0.7c0-2.2,0-4.4,0-6.7c0-0.2-0.1-0.3-0.2-0.5c0.1-0.3,0.2-0.5,0.2-0.8
			c0-2.2,0-4.4,0-6.6c0-0.2-0.2-0.4-0.2-0.6c0.1-0.1,0.2-0.2,0.2-0.3c0-2.5,0-5,0-7.5c0,0-0.1-0.1-0.1-0.1c0.1-0.3,0.2-0.5,0.2-0.8
			c0-2.2,0-4.4,0-6.6c0-0.2-0.1-0.4-0.2-0.6c0.1-0.4,0.2-0.8,0.2-1.2c0-2.2,0-4.4,0-6.6c0.1,0.6,0.2,1.2,0.2,1.8c0,1.5,0,2.9,0,4.4
			c0,0.3,0.1,0.6,0.2,0.9c0,2.6-0.1,5.2-0.1,7.9c0,0,0.1,0,0.1,0.1c-0.1,0.4-0.2,0.7-0.2,1.1c0,2.3,0,4.6,0,6.9c0,2.4,0,4.8,0,7.3
			c0,0.2,0.1,0.4,0.2,0.6c-0.1,0.4-0.2,0.7-0.2,1.1c0,2,0,4,0,6c0,0.3,0.1,0.6,0.2,0.9c-0.1,0.3-0.2,0.5-0.2,0.8c0,2.5,0,4.9,0,7.4
			c-0.1,0-0.1,0-0.2,0c0-2.2,0-4.4,0-6.5C5.3,67.5,5.2,67.2,5.1,66.8L5.1,66.8z"/>
		<path class="st15" d="M5.3,74.4c0.1,0,0.1,0,0.2,0c2.6,0,5.1,0,7.7,0c0,0.1,0,0.1,0,0.2c-0.1,0.1-0.2,0.2-0.4,0.3
			c-0.3-0.1-0.7-0.2-1-0.2c-1.9,0-3.7,0-5.6,0C6,74.6,5.6,74.5,5.3,74.4z"/>
		<path class="st8" d="M5.1,50.9c0.1,0.2,0.2,0.4,0.2,0.6c0,2.2,0,4.4,0,6.6c0,0.3-0.1,0.5-0.2,0.8c-1.6,1.6-3.2,3.2-4.9,4.9
			c0-2.6,0-5.3,0-7.9c0-0.1,0-0.2,0-0.2C1.8,54.1,3.4,52.5,5.1,50.9L5.1,50.9z"/>
		<path class="st6" d="M71.6,7.9c-2.6,0-5.1,0-7.7,0c0-2.6,0-5.1,0-7.7c2.6,0,5.2,0,7.7,0C71.6,2.8,71.6,5.4,71.6,7.9L71.6,7.9z"/>
		<path class="st17" d="M63.9,0.2c0,2.6,0,5.1,0,7.7c-0.1,0-0.1,0-0.2,0c0-2.6,0-5.1,0-7.7v0C63.7,0.2,63.8,0.2,63.9,0.2L63.9,0.2z"
			/>
		<path class="st7" d="M63.7,0.2c0,2.6,0,5.1,0,7.7c-2.7,0-5.3,0-8,0c0-2.6,0-5.1,0-7.7l0-0.1C58.4,0.2,61,0.2,63.7,0.2L63.7,0.2z"
			/>
		<path class="st6" d="M55.7,0.3c0,2.6,0,5.1,0,7.7c-2.6,0-5.1,0-7.7,0c0-2.6,0-5.1,0-7.7C50.6,0.3,53.1,0.3,55.7,0.3L55.7,0.3z"/>
		<path class="st17" d="M48,0.2c0,2.6,0,5.1,0,7.7c-0.1,0-0.1,0-0.2,0c0-2.6,0-5.1,0-7.7v0C47.8,0.2,47.9,0.2,48,0.2L48,0.2z"/>
		<path class="st7" d="M47.8,0.2c0,2.6,0,5.1,0,7.7c-2.6,0-5.2,0-7.7,0c0-2.6,0-5.1,0-7.7C42.6,0.2,45.2,0.2,47.8,0.2L47.8,0.2z"/>
		<path class="st18" d="M40,0.2c0,2.6,0,5.1,0,7.7c-0.1,0-0.2,0-0.2,0c0-2.6,0-5.1,0-7.7l0-0.1C39.9,0.2,39.9,0.2,40,0.2L40,0.2z"/>
		<path class="st13" d="M5.1,35c0.1,0.2,0.2,0.4,0.2,0.6c0,2.2,0,4.4,0,6.6c0,0.3-0.1,0.5-0.2,0.8c-1.6,1.6-3.2,3.1-4.9,4.7
			c0-2.6,0-5.1,0-7.7c0-0.1,0-0.2,0-0.2C1.9,38.2,3.5,36.6,5.1,35L5.1,35z"/>
		<path class="st6" d="M0.2,47.7c1.6-1.6,3.2-3.1,4.9-4.7c0.1,0,0.1,0.1,0.1,0.1c0,2.5,0,5,0,7.5c0,0.1-0.1,0.2-0.2,0.3
			c-1.6,1.6-3.2,3.1-4.8,4.7c0-2.6,0-5.2-0.1-7.8C0.2,47.8,0.2,47.7,0.2,47.7z"/>
		<path class="st6" d="M39.8,0.2c0,2.6,0,5.1,0,7.7c-2.6,0-5.1,0-7.7,0C32,5.5,32,3,32,0.6c0-0.1,0-0.2,0-0.3
			C34.6,0.3,37.2,0.3,39.8,0.2L39.8,0.2z"/>
		<path class="st7" d="M71.7,47.7c-2.6,0-5.2,0-7.8,0c0-2.6,0-5.2,0-7.7c2.6,0,5.2,0,7.8,0C71.7,42.5,71.7,45.1,71.7,47.7z"/>
		<path class="st6" d="M71.6,23.8c-2.6,0-5.1,0-7.7,0c0-2.6,0-5.1,0-7.7c2.6,0,5.2,0,7.7,0h0C71.6,18.7,71.6,21.3,71.6,23.8
			L71.6,23.8z"/>
		<path class="st7" d="M63.9,24c2.6,0,5.2,0,7.8,0c0,2.6,0,5.1,0,7.7l-0.1,0c-2.3,0-4.6,0-6.8,0c-0.7,0-0.9-0.2-0.9-0.9
			C63.9,28.6,63.9,26.3,63.9,24L63.9,24z"/>
		<path class="st6" d="M71.6,39.7c-2.6,0-5.1,0-7.7,0c0-2.6,0-5.1,0-7.7c2.6,0,5.2,0,7.7,0h0C71.6,34.6,71.6,37.2,71.6,39.7z"/>
		<path class="st7" d="M63.9,8.1c2.6,0,5.2,0,7.8,0c0,2.6,0,5.1,0,7.7l-0.1,0c-2.3,0-4.6,0-6.8,0c-0.7,0-0.9-0.2-0.9-0.9
			C63.9,12.7,63.9,10.4,63.9,8.1L63.9,8.1z"/>
		<path class="st10" d="M63.5,47.9c2.6,0,5.2,0,7.7,0c-1.4,1.4-2.7,2.8-4.1,4.2c-0.3,0.4-0.7,0.7-1,1.1h0c-2.5,0-5,0-7.7,0
			C60.2,51.3,61.8,49.6,63.5,47.9L63.5,47.9z"/>
		<path class="st13" d="M63.5,47.9c-1.6,1.7-3.3,3.4-5.1,5.3c2.8,0,5.3,0,7.7,0c-1.6,1.6-3.3,3.3-4.9,4.9c-0.1,0.1-0.3,0.3-0.4,0.4
			c-0.1,0-0.1,0-0.2,0c-2.4,0-4.8,0-7.3,0c0-0.1-0.1-0.2-0.1-0.3c1.6-1.6,3.2-3.2,5.1-5c-2.9,0-5.5,0-8.1,0v0
			c0.2-0.3,0.5-0.6,0.7-0.8c1.5-1.5,3-3,4.5-4.5C58.1,47.9,60.8,47.9,63.5,47.9L63.5,47.9z"/>
		<path class="st17" d="M60.8,58.5c0.1-0.1,0.3-0.3,0.4-0.4c0,0.1,0,0.2,0,0.4C61.1,58.5,61,58.5,60.8,58.5L60.8,58.5z"/>
		<path class="st11" d="M50.2,53.2h8.1c-1.8,1.8-3.4,3.4-5.1,5c0,0.1,0.1,0.2,0.1,0.3c2.4,0,4.8,0,7.3,0c-1.8,1.8-3.6,3.5-5.3,5.3
			l0,0c-2.5,0-4.9,0-7.4,0c-0.1-0.1-0.1-0.2-0.1-0.2c1.7-1.6,3.4-3.2,5.1-4.8c-0.1-0.1-0.1-0.2-0.1-0.3c-2.5,0-4.9,0-7.4,0
			c0-0.1,0-0.1,0-0.2c0.3-0.3,0.5-0.6,0.8-0.9C47.5,56,48.8,54.6,50.2,53.2L50.2,53.2z"/>
		<path class="st13" d="M45.3,58.4h7.4c0.1,0.1,0.1,0.2,0.1,0.3c-1.7,1.6-3.4,3.2-5.1,4.8c0.1,0.1,0.1,0.2,0.1,0.2
			c2.5,0,4.9,0,7.4,0c-1.4,1.5-2.9,2.9-4.3,4.4c-0.3,0.3-0.5,0.6-0.8,0.9c-2.2,0-4.5,0-6.7,0c-0.3,0-0.7-0.1-1-0.2
			c1.6-1.7,3.3-3.4,4.9-5.1h-7.8c1.7-1.7,3.4-3.4,5.1-5.1c0.1-0.1,0.1-0.1,0.2-0.2l0,0C45,58.5,45.2,58.5,45.3,58.4L45.3,58.4z"/>
		<path class="st16" d="M13.2,74.6c0-0.1,0-0.1,0-0.2c0.1,0,0.1,0,0.2,0c2.6,0,5.2,0,7.8,0c0,0.1,0,0.1,0,0.2c-0.1,0-0.1,0-0.2,0
			C18.4,74.6,15.8,74.6,13.2,74.6L13.2,74.6z"/>
		<path class="st16" d="M37,74.6L37,74.6c-0.1,0-0.2,0-0.2,0c-2.6,0-5.2,0-7.8,0c0-0.1,0-0.1,0-0.2c0.1,0,0.1,0,0.2,0
			c2.6,0,5.2,0,7.8,0C36.9,74.4,36.9,74.5,37,74.6L37,74.6z"/>
		<path class="st14" d="M29,74.4c0,0.1,0,0.1,0,0.2c-0.1,0.1-0.2,0.1-0.2,0.2c-0.3-0.1-0.7-0.2-1.1-0.2c-2.2,0-4.3,0-6.5,0
			c0-0.1,0-0.1,0-0.2c0.1,0,0.2,0,0.2,0C24,74.4,26.5,74.4,29,74.4z"/>
		<path class="st14" d="M37,74.6c0-0.1,0-0.1,0-0.2c0.1,0,0.3,0,0.4,0c2.5,0,4.9,0,7.4,0.1c0,0,0,0.1,0,0.1
			c-0.1,0.1-0.2,0.1-0.2,0.2c-0.3-0.1-0.7-0.2-1.1-0.2C41.3,74.6,39.1,74.6,37,74.6L37,74.6z"/>
		<path class="st16" d="M45.3,74.5c1.7-0.1,3.3-0.1,5-0.1c0.7,0,1.3,0.1,2,0.1C49.9,74.5,47.6,74.5,45.3,74.5z"/>
		<path class="st6" d="M44.7,74.4c-2.5,0-4.9,0-7.4-0.1c0.2-0.3,0.5-0.6,0.7-0.8c1.4-1.4,2.8-2.8,4.2-4.2c2.2,0,4.4,0,6.6,0
			c0.3,0,0.6,0.1,0.9,0.2C48.1,71.1,46.4,72.8,44.7,74.4L44.7,74.4z"/>
		<path class="st16" d="M49.8,69.5c-0.3-0.1-0.6-0.2-0.9-0.2c-2.2,0-4.4,0-6.6,0l-0.1,0c0-0.1,0.1-0.1,0.1-0.2
			c0.1-0.1,0.1-0.1,0.2-0.2c0.3,0.1,0.7,0.2,1,0.2c2.2,0,4.5,0,6.7,0c0,0.1,0,0.1,0,0.2C50.1,69.3,49.9,69.4,49.8,69.5L49.8,69.5z"
			/>
		<path class="st11" d="M44.7,58.7c-1.7,1.7-3.4,3.4-5.1,5.1h0h-7.7c1.8-1.9,3.4-3.5,5.1-5.3c-2.7,0-5.2,0-7.6,0c0-0.1,0-0.1,0-0.2
			c1.6-1.6,3.2-3.3,5-5.1h-7.6c0-0.1,0-0.1,0-0.2c0-0.1,0-0.1,0-0.2c0-0.1,0-0.1,0-0.2c0-2.5,0-5,0.1-7.5c0.1-0.1,0.1-0.2,0.2-0.2
			c1.1-1.1,2.2-2.3,3.4-3.4c0.5-0.5,1-0.8,1.5-1.2v7.7c2.3,0,4.5,0,6.7,0c0.3,0,0.7,0.1,1,0.2c-1.6,1.7-3.2,3.4-4.9,5.1h7.5
			c-1.6,1.6-3.1,3.2-4.6,4.8l-0.3,0.3c0.1,0,0.2,0.1,0.3,0.1c2.4,0,4.8,0,7.1,0C44.7,58.6,44.7,58.6,44.7,58.7L44.7,58.7z"/>
		<path class="st13" d="M37.5,58.1c1.5-1.6,3.1-3.2,4.6-4.8h-7.5c1.7-1.8,3.3-3.4,4.9-5.1c0.5-0.1,0.9-0.2,1.4-0.2
			c2.2,0,4.4,0,6.6,0c-1.6,1.7-3.2,3.4-5,5.3h7.7v0c-1.4,1.4-2.7,2.8-4.1,4.2c-0.3,0.3-0.5,0.6-0.8,0.9c-0.1,0.1-0.3,0.2-0.4,0.2
			l0,0c-0.1,0-0.1,0-0.2,0c-2.4,0-4.8,0-7.1,0C37.6,58.3,37.5,58.2,37.5,58.1L37.5,58.1z"/>
		<path class="st7" d="M63.7,39.7c-2.7,0-5.3,0-8,0c0-2.6,0-5.1,0-7.7v0c2.7,0,5.3,0,8,0h0C63.7,34.6,63.7,37.1,63.7,39.7L63.7,39.7
			z"/>
		<path class="st7" d="M47.8,39.7c-2.6,0-5.2,0-7.8,0c0-2.6,0-5.1,0-7.7v0c2.6,0,5.2,0,7.8,0h0C47.7,34.6,47.7,37.2,47.8,39.7z"/>
		<path class="st6" d="M32.1,32c2.6,0,5.1,0,7.7,0c0,2.6,0,5.1,0,7.7c-2.6,0-5.1,0-7.7,0C32.1,37.1,32.1,34.6,32.1,32L32.1,32z"/>
		<path class="st7" d="M39.8,47.7c-2.3,0-4.5,0-6.8,0c-0.7,0-1-0.1-1-0.9c0-2,0-4,0-6c0-0.8,0.3-0.9,1-0.9c2.3,0,4.5,0,6.8,0
			C39.8,42.5,39.8,45.1,39.8,47.7z"/>
		<path class="st6" d="M47.8,47.7c-2.6,0-5.2,0-7.7,0c0-2.6,0-5.1,0-7.7c2.6,0,5.1,0,7.7,0C47.7,42.5,47.8,45.1,47.8,47.7z"/>
		<path class="st6" d="M55.9,40c2.6,0,5.2,0,7.7,0c0,2.6,0,5.2,0,7.7c-2.6,0-5.2,0-7.7,0C55.9,45.1,55.9,42.5,55.9,40L55.9,40z"/>
		<path class="st7" d="M48,39.9c2.6,0,5.2,0,7.8,0c0,2.6,0,5.1,0,7.7c-2.6,0-5.2,0-7.8,0C48,45.1,48,42.5,48,39.9L48,39.9z"/>
		<path class="st6" d="M55.7,32c0,2.6,0,5.1,0,7.7c-2.6,0-5.1,0-7.7,0c0-2.6,0-5.1,0-7.7C50.6,32,53.1,32,55.7,32L55.7,32z"/>
		<path class="st10" d="M50.2,53.2h-7.7c1.8-1.9,3.4-3.6,5-5.3c2.6,0,5.3,0,7.9,0c-1.5,1.5-3,3-4.5,4.5
			C50.7,52.6,50.5,52.9,50.2,53.2L50.2,53.2z"/>
		<path class="st8" d="M31.8,40.2c-0.5,0.4-1.1,0.8-1.5,1.2c-1.1,1.1-2.3,2.3-3.4,3.4c-0.1-0.3-0.2-0.7-0.2-1c0-2.2,0-4.5,0-6.7
			c0-0.1,0-0.1,0-0.2c0.3-0.2,0.6-0.5,0.8-0.7c1.4-1.4,2.8-2.8,4.2-4.2h0c0,2.6,0,5.2,0,7.7L31.8,40.2L31.8,40.2z"/>
		<path class="st18" d="M48,39.9c0,2.6,0,5.2,0,7.7c-0.1,0-0.1,0-0.2,0c0-2.6,0-5.2,0-7.7C47.8,39.9,47.9,39.9,48,39.9L48,39.9z"/>
		<path class="st18" d="M63.7,47.7c0-2.6,0-5.2,0-7.7c0.1,0,0.1,0,0.2,0c0,2.6,0,5.2,0,7.7C63.8,47.7,63.7,47.7,63.7,47.7L63.7,47.7
			z"/>
		<path class="st17" d="M63.7,39.7c0-2.6,0-5.2,0-7.7c0.1,0,0.2,0,0.2,0c0,2.6,0,5.1,0,7.7C63.8,39.7,63.7,39.7,63.7,39.7L63.7,39.7
			z"/>
		<path class="st17" d="M48,32c0,2.6,0,5.1,0,7.7c-0.1,0-0.1,0-0.2,0c0-2.6,0-5.2,0-7.7C47.8,32,47.9,32,48,32L48,32z"/>
		<path class="st18" d="M39.8,39.7c0-2.6,0-5.1,0-7.7c0.1,0,0.2,0,0.2,0c0,2.6,0,5.1,0,7.7C39.9,39.7,39.8,39.7,39.8,39.7L39.8,39.7
			z"/>
		<path class="st16" d="M31.9,39.7c0-2.6,0-5.2,0-7.7c0.1,0,0.2,0,0.2,0c0,2.6,0,5.1,0,7.7C32,39.7,31.9,39.7,31.9,39.7L31.9,39.7z"
			/>
		<path class="st16" d="M40,39.9c0,2.6,0,5.1,0,7.7c-0.1,0-0.1,0-0.2,0c0-2.6,0-5.1,0-7.7C39.9,39.9,39.9,39.9,40,39.9L40,39.9z"/>
		<path class="st17" d="M55.7,47.7c0-2.6,0-5.1,0-7.7c0.1,0,0.1,0,0.2,0c0,2.6,0,5.1,0,7.7C55.9,47.7,55.8,47.7,55.7,47.7L55.7,47.7
			z"/>
		<path class="st7" d="M63.7,23.8c-2.7,0-5.3,0-8,0c0-2.6,0-5.1,0-7.7v0c2.7,0,5.3,0,8,0h0C63.7,18.7,63.7,21.3,63.7,23.8L63.7,23.8
			z"/>
		<path class="st7" d="M48,24c2.6,0,5.2,0,7.8,0c0,2.6,0,5.2,0,7.7c-2.3,0-4.6,0-6.9,0c-0.7,0-0.9-0.2-0.9-0.9
			C48,28.6,48,26.3,48,24L48,24z"/>
		<path class="st6" d="M40,24.1c2.6,0,5.1,0,7.7,0c0,2.6,0,5.2,0,7.7c-2.6,0-5.2,0-7.7,0l0,0C40,29.2,40,26.6,40,24.1L40,24.1z"/>
		<path class="st6" d="M55.7,16.1c0,2.6,0,5.1,0,7.7c-2.6,0-5.1,0-7.7,0c0-2.6,0-5.1,0-7.7C50.6,16.1,53.1,16.1,55.7,16.1L55.7,16.1
			z"/>
		<path class="st7" d="M39.8,31.8c-2.3,0-4.5,0-6.8,0c-0.7,0-1-0.1-1-0.9c0-2,0-4,0-6c0-0.8,0.3-0.9,1-0.9c2.3,0,4.5,0,6.8,0
			C39.8,26.6,39.8,29.2,39.8,31.8z"/>
		<path class="st6" d="M55.9,24.1c2.6,0,5.1,0,7.7,0c0,2.6,0,5.2,0,7.7c-2.6,0-5.1,0-7.7,0C55.9,29.2,55.9,26.6,55.9,24.1z"/>
		<path class="st6" d="M39.8,23.8c-2.6,0-5.1,0-7.7,0c0-2.6,0-5.1,0-7.7c2.6,0,5.2,0,7.7,0h0C39.8,18.7,39.8,21.3,39.8,23.8z"/>
		<path class="st7" d="M47.8,23.8c-2.6,0-5.2,0-7.7,0c0-2.6,0-5.1,0-7.7c2.6,0,5.2,0,7.7,0C47.8,18.7,47.8,21.3,47.8,23.8L47.8,23.8
			z"/>
		<path class="st8" d="M31.9,23.8c-0.1,0.1-0.2,0.3-0.2,0.4c-1.6,1.6-3.1,3.1-4.7,4.7c-0.1-0.3-0.2-0.6-0.2-0.9c0-1.4,0-2.7,0-4.1
			c0-0.7-0.1-1.4-0.2-2.1c0-0.1,0-0.1,0-0.2c0-0.1,0-0.2,0-0.2c0.1-0.1,0.1-0.1,0.2-0.2c0-0.1,0-0.1,0-0.2c1.7-1.6,3.4-3.3,5.1-4.9
			C31.8,18.7,31.9,21.3,31.9,23.8L31.9,23.8z"/>
		<path class="st6" d="M26.9,28.9c1.6-1.6,3.1-3.1,4.7-4.7c0.1,0.2,0.2,0.4,0.2,0.6c0,2.4,0,4.8,0,7.1c-1.4,1.4-2.8,2.8-4.2,4.2
			c-0.3,0.3-0.5,0.5-0.8,0.7c0-2.4,0-4.8-0.1-7.1c0-0.1,0-0.2,0-0.3l0.1-0.2C26.8,29.1,26.9,29,26.9,28.9z"/>
		<path class="st15" d="M63.6,31.8c0-2.6,0-5.2,0-7.7c0.1,0,0.1,0,0.2,0c0,2.3,0,4.6,0,6.8c0,0.7,0.2,0.9,0.9,0.9c2.3,0,4.6,0,6.8,0
			c0,0.1,0,0.1,0,0.2c-2.6,0-5.2,0-7.7,0c-0.1,0-0.2,0-0.2,0h0C63.7,31.9,63.6,31.9,63.6,31.8L63.6,31.8z"/>
		<path class="st15" d="M47.7,31.8c0-2.6,0-5.2,0-7.7c0.1,0,0.1,0,0.2,0c0,2.3,0,4.6,0,6.9c0,0.7,0.2,0.9,0.9,0.9c2.3,0,4.6,0,6.9,0
			h0c0,0.1,0,0.1,0,0.2v0c-2.6,0-5.2,0-7.7,0c-0.1,0-0.2,0-0.2,0h0C47.7,31.9,47.7,31.9,47.7,31.8L47.7,31.8z"/>
		<path class="st16" d="M31.9,23.8c0-2.6,0-5.2,0-7.7v0c0.1,0,0.2,0,0.2,0c0,2.6,0,5.1,0,7.7C32,23.8,31.9,23.8,31.9,23.8L31.9,23.8
			z"/>
		<path class="st18" d="M40,16.1c0,2.6,0,5.1,0,7.7c-0.1,0-0.2,0-0.2,0c0-2.6,0-5.1,0-7.7C39.9,16.1,39.9,16.1,40,16.1L40,16.1z"/>
		<path class="st17" d="M47.8,23.8c0-2.6,0-5.2,0-7.7c0.1,0,0.1,0,0.2,0c0,2.6,0,5.1,0,7.7C47.9,23.8,47.8,23.8,47.8,23.8L47.8,23.8
			z"/>
		<path class="st4" d="M47.7,31.8c0,0.1,0,0.1,0,0.2c-2.6,0-5.2,0-7.8,0c0-0.1,0-0.1,0-0.2C42.6,31.8,45.2,31.8,47.7,31.8L47.7,31.8
			z"/>
		<path class="st17" d="M55.9,24.1c0,2.6,0,5.1,0,7.7c-0.1,0-0.1,0-0.2,0h0c0-2.6,0-5.2,0-7.7C55.8,24.1,55.9,24.1,55.9,24.1
			L55.9,24.1z"/>
		<path class="st17" d="M63.7,23.8c0-2.6,0-5.2,0-7.7c0.1,0,0.2,0,0.2,0c0,2.6,0,5.1,0,7.7C63.8,23.8,63.7,23.8,63.7,23.8L63.7,23.8
			z"/>
		<path class="st16" d="M39.8,31.8c0-2.6,0-5.2,0-7.7c0.1,0,0.1,0,0.2,0c0,2.6,0,5.1,0,7.7C39.9,31.8,39.9,31.8,39.8,31.8L39.8,31.8
			z"/>
		<path class="st7" d="M48,8.1c2.6,0,5.2,0,7.8,0c0,2.6,0,5.2,0,7.7c-2.3,0-4.6,0-6.9,0c-0.7,0-0.9-0.2-0.9-0.9
			C48,12.7,48,10.4,48,8.1z"/>
		<path class="st6" d="M55.9,8.2c2.6,0,5.1,0,7.7,0c0,2.6,0,5.1,0,7.7c-2.6,0-5.1,0-7.7,0C55.9,13.3,55.9,10.7,55.9,8.2L55.9,8.2z"
			/>
		<path class="st7" d="M32,15.9c0-2.3,0-4.6,0-6.9c0-0.7,0.2-0.9,0.9-0.9c2.3,0,4.6,0,6.9,0c0,2.6,0,5.1,0,7.7
			C37.2,15.9,34.6,15.9,32,15.9L32,15.9z"/>
		<path class="st6" d="M40,8.2c2.6,0,5.1,0,7.7,0c0,2.6,0,5.1,0,7.7H40L40,8.2L40,8.2z"/>
		<path class="st6" d="M31.8,16.1c-1.7,1.6-3.4,3.3-5.1,4.9c0-2.4,0-4.8-0.1-7.1c0-0.1,0-0.2,0-0.3c0-0.1,0-0.1,0.1-0.2
			c0.1-0.1,0.1-0.2,0.2-0.2c1.6-1.6,3.1-3.1,4.7-4.7c0.1,0.3,0.2,0.7,0.2,1c0,2.2,0,4.4,0,6.5C31.8,16,31.8,16,31.8,16.1L31.8,16.1z
			"/>
		<path class="st16" d="M40,8.2v7.7c2.6,0,5.2,0,7.7,0c0,0.1,0,0.2,0,0.2c-2.6,0-5.2,0-7.7,0c-0.1,0-0.2,0-0.2,0h0
			c0-0.1,0-0.2,0-0.2c0-2.6,0-5.1,0-7.7C39.9,8.1,39.9,8.1,40,8.2L40,8.2z"/>
		<path class="st15" d="M47.7,16.1c0-0.1,0-0.2,0-0.2c0-2.6,0-5.1,0-7.7c0.1,0,0.1,0,0.2,0c0,2.3,0,4.6,0,6.9c0,0.7,0.2,0.9,0.9,0.9
			c2.3,0,4.6,0,6.9,0h0c0,0.1,0,0.1,0,0.2v0c-2.6,0-5.2,0-7.7,0C47.9,16.1,47.8,16.1,47.7,16.1L47.7,16.1z"/>
		<path class="st15" d="M63.6,15.9c0-2.6,0-5.1,0-7.7c0.1,0,0.1,0,0.2,0c0,2.3,0,4.5,0,6.8c0,0.7,0.2,0.9,0.9,0.9c2.3,0,4.6,0,6.8,0
			c0,0.1,0,0.2,0,0.2c-2.6,0-5.2,0-7.7,0c-0.1,0-0.2,0-0.2,0h0C63.7,16,63.7,16,63.6,15.9L63.6,15.9z"/>
		<path class="st15" d="M39.8,15.9c0,0.1,0,0.2,0,0.2c-2.6,0-5.2,0-7.7,0c-0.1,0-0.2,0-0.2,0c0-0.1,0-0.1,0.1-0.2c0.1,0,0.1,0,0.2,0
			C34.6,15.9,37.2,15.9,39.8,15.9z"/>
		<path class="st17" d="M55.9,8.2c0,2.6,0,5.1,0,7.7c-0.1,0-0.1,0-0.2,0h0c0-2.6,0-5.2,0-7.7C55.8,8.1,55.9,8.1,55.9,8.2L55.9,8.2z"
			/>
		<path class="st16" d="M32,0.6c0,2.4,0,4.9,0.1,7.3c-0.1,0-0.1,0-0.2,0c0-2.2,0-4.3,0-6.5C31.9,1.2,32,0.9,32,0.6L32,0.6z"/>
		<path class="st14" d="M26.9,13c-0.1,0.1-0.1,0.2-0.2,0.2c-0.1,0-0.1,0-0.2,0c0-2.4,0-4.9,0-7.3c0.1,0.7,0.2,1.4,0.2,2.1
			c0,1.4,0,2.7,0,4.1C26.7,12.4,26.9,12.7,26.9,13L26.9,13z"/>
		<path class="st11" d="M5.7,42.3C5.7,42.3,5.6,42.3,5.7,42.3c-0.1-2.7,0-5.3,0-7.9c1.6-1.6,3.2-3.2,4.9-4.8c0,2.6,0,5.1,0.1,7.7
			c0,0.1,0,0.1,0,0.2C9,39.1,7.3,40.7,5.7,42.3L5.7,42.3z"/>
		<path class="st15" d="M10.6,37.3c0-2.6,0-5.1-0.1-7.7c0-0.1,0-0.2,0-0.3c0.1,0,0.1,0,0.2,0c0,2.6,0,5.2,0,7.8c0,0.1,0,0.1,0,0.2
			C10.7,37.3,10.7,37.3,10.6,37.3z"/>
		<path class="st16" d="M10.8,29.3c-0.1,0-0.1,0-0.2,0c0-2.5,0-5.1,0-7.6c0.1,0.9,0.1,1.7,0.2,2.6c0,1.6,0,3.2,0,4.8
			C10.8,29.2,10.8,29.2,10.8,29.3L10.8,29.3z"/>
		<path class="st0" d="M10.8,29.3c0-0.1,0-0.1,0-0.2c1.4-1.4,2.8-2.8,4.2-4.2c0.3-0.3,0.5-0.5,0.8-0.7c0,2.7,0,5.3,0,8
			c-1.7,1.6-3.4,3.3-5.1,4.9C10.8,34.5,10.8,31.9,10.8,29.3L10.8,29.3z"/>
		<path class="st14" d="M15.9,32.2c0-2.7,0-5.3,0-8c0-2.6,0-5.1,0-7.7c0.1,0.5,0.2,1,0.2,1.5c0,1.6,0,3.2,0,4.7
			c0,0.3,0.1,0.6,0.2,0.9c-0.1,0.3-0.2,0.6-0.2,1c0,2.3,0,4.7,0,7c0,2.3,0,4.6,0,7c0,0.3,0.1,0.6,0.2,0.9c-0.1,0.3-0.2,0.6-0.2,1
			c0,2.3,0,4.7,0,7c0,2.3,0,4.7,0,7c0,0.3,0.1,0.6,0.2,0.9c-0.1,0.4-0.2,0.8-0.2,1.2c0,1.9,0,3.9,0,5.8c0,0.4-0.1,0.8-0.2,1.2
			c0-2.2,0-4.3,0-6.5c0-0.4-0.1-0.7-0.2-1.1c0.1-0.3,0.2-0.6,0.2-0.9c0-2.4,0-4.7,0-7.1c0-2.3,0-4.6,0-7c0-0.3-0.2-0.5-0.3-0.8
			c0.1-0.4,0.3-0.7,0.3-1.1C15.9,36.9,15.9,34.5,15.9,32.2L15.9,32.2z"/>
		<path class="st6" d="M16.1,31.6c0-2.3,0-4.7,0-7c0-0.3,0.1-0.6,0.2-1c1.6-1.6,3.2-3.1,4.9-4.7c0,2.6,0,5.2,0,7.7
			c-0.3,0.2-0.5,0.4-0.8,0.7C19,28.8,17.6,30.2,16.1,31.6L16.1,31.6z"/>
		<path class="st15" d="M21.2,26.7c0-2.6,0-5.2,0-7.7c0-0.1,0-0.3,0-0.4c0.1,0,0.1,0,0.2,0c0,2.3,0,4.5,0,6.8c0,0.3,0.1,0.6,0.2,0.9
			c-0.1,0.1-0.2,0.3-0.2,0.4C21.3,26.7,21.3,26.7,21.2,26.7L21.2,26.7z"/>
		<path class="st16" d="M21.4,18.6c-0.1,0-0.1,0-0.2,0c0-2.5,0-4.9,0-7.4c0.1,0.8,0.1,1.5,0.2,2.3c0,1.6,0,3.3,0,4.9
			C21.4,18.4,21.4,18.5,21.4,18.6z"/>
		<path class="st8" d="M21.4,18.6c0-0.1,0-0.1,0-0.2c1.7-1.6,3.4-3.3,5.1-4.9c0.1,0,0.1,0,0.2,0c0,0.1,0,0.2,0,0.3
			c-0.1,0.3-0.2,0.5-0.2,0.8c0,2.2,0,4.4,0,6.6c0,0.1,0,0.1,0,0.2c-0.1,0.1-0.1,0.1-0.2,0.2c-1.6,1.6-3.1,3.1-4.7,4.7
			c-0.1-0.3-0.2-0.6-0.2-0.9C21.4,23.1,21.4,20.8,21.4,18.6L21.4,18.6z"/>
		<path class="st16" d="M26.7,13.5c-0.1,0-0.1,0-0.2,0c0-0.1,0-0.1,0-0.2c0.1,0,0.1,0,0.2,0C26.7,13.3,26.7,13.4,26.7,13.5
			L26.7,13.5z"/>
		<path class="st11" d="M13.4,74.4c-0.1,0-0.1,0-0.2,0c-2.6,0-5.1,0-7.7,0c0-2.5,0-4.9,0-7.4c0-0.3,0.1-0.5,0.2-0.8
			c1.6-1.6,3.3-3.2,4.9-4.8c0,2.4,0,4.9,0.1,7.3c0,0.1,0,0.3,0,0.4c0.3,0.1,0.7,0.2,1,0.2c2.2,0,4.5,0,6.7,0
			C16.7,71,15.1,72.7,13.4,74.4L13.4,74.4z"/>
		<path class="st0" d="M5.7,42.3c1.6-1.6,3.3-3.2,4.9-4.9c0,2.6,0,5.2,0,7.7c0,0.1,0,0.2,0,0.2c-1.2,1.2-2.3,2.3-3.5,3.5
			c-0.5,0.5-1,0.9-1.6,1.4c0-2.3,0-4.6,0-6.9C5.5,43.1,5.6,42.7,5.7,42.3L5.7,42.3z"/>
		<path class="st0" d="M10.6,61.4c-1.6,1.6-3.3,3.2-4.9,4.8c-0.1-0.3-0.2-0.6-0.2-0.9c0-2,0-4,0-6c0-0.4,0.1-0.7,0.2-1.1
			c1.6-1.6,3.3-3.2,4.9-4.9c0,2.6,0,5.2,0,7.7C10.6,61.2,10.6,61.3,10.6,61.4L10.6,61.4z"/>
		<path class="st11" d="M10.6,53.4C9,55,7.3,56.6,5.7,58.2c-0.1-0.2-0.2-0.4-0.2-0.6c0-2.4,0-4.8,0-7.3C6,49.9,6.6,49.5,7.1,49
			c1.2-1.1,2.3-2.3,3.5-3.5c0,2.6,0,5.1,0.1,7.7C10.6,53.2,10.6,53.3,10.6,53.4L10.6,53.4z"/>
		<path class="st17" d="M44.9,58.5c0.1-0.1,0.3-0.2,0.4-0.2c0,0.1,0,0.1,0,0.2C45.2,58.5,45,58.5,44.9,58.5z"/>
		<path class="st11" d="M42.5,68.9c-0.1,0.1-0.1,0.1-0.2,0.2c-2.7,0-5.3,0-8,0c1.8-1.8,3.5-3.5,5.3-5.3h0c2.6,0,5.2,0,7.8,0
			C45.7,65.5,44.1,67.2,42.5,68.9L42.5,68.9z"/>
		<path class="st17" d="M44.7,58.5c0.1,0,0.1,0,0.2,0c-0.1,0.1-0.1,0.1-0.2,0.2C44.7,58.6,44.7,58.5,44.7,58.5L44.7,58.5z"/>
		<path class="st13" d="M13.4,74.4c1.6-1.7,3.3-3.4,4.9-5.1c0.1,0,0.1,0,0.2,0c2.5,0,5.1,0,7.6,0c-0.3,0.3-0.5,0.6-0.8,0.9
			c-1.3,1.4-2.6,2.7-4,4.1c-0.1,0-0.2,0-0.2,0C18.6,74.4,16,74.4,13.4,74.4z"/>
		<path class="st13" d="M42.3,69.3c-1.4,1.4-2.8,2.8-4.2,4.2c-0.3,0.3-0.5,0.6-0.7,0.8c-0.1,0-0.3,0-0.4,0c-2.6,0-5.2,0-7.8,0
			c1.6-1.7,3.3-3.4,4.9-5.1c0.1,0,0.1,0,0.2,0C36.9,69.3,39.6,69.3,42.3,69.3L42.3,69.3z"/>
		<path class="st6" d="M34.1,69.3c-1.6,1.7-3.3,3.4-4.9,5.1c-0.1,0-0.1,0-0.2,0c-2.5,0-5,0-7.5,0c1.3-1.4,2.6-2.7,4-4.1
			c0.3-0.3,0.5-0.6,0.8-0.9c0.1,0,0.1,0,0.1,0L34.1,69.3L34.1,69.3z"/>
		<path class="st15" d="M42.2,69.3c-2.6,0-5.3,0-7.9,0c0-0.1,0-0.1,0-0.2h0c2.7,0,5.3,0,8,0C42.3,69.1,42.2,69.2,42.2,69.3
			L42.2,69.3z"/>
		<path class="st13" d="M39.6,63.8c-1.8,1.8-3.5,3.5-5.3,5.3h0c-2.2,0-4.3,0-6.5,0c-0.3,0-0.7-0.1-1-0.2c1.7-1.7,3.3-3.3,5.1-5.1
			h-7.9c1.7-1.7,3.4-3.4,5.1-5.1c0.1-0.1,0.2-0.1,0.2-0.2h0c0.1,0,0.2,0,0.2,0H37c-1.7,1.8-3.3,3.5-5.1,5.3L39.6,63.8L39.6,63.8z"/>
		<path class="st0" d="M26.7,52.6c0,0.1,0,0.1,0,0.2c0,0.1,0,0.1,0,0.2c0,0.1,0,0.1,0,0.2h7.6c-1.8,1.8-3.4,3.5-5,5.1
			c-0.1,0.1-0.1,0.1-0.2,0.2l0,0c-0.1,0-0.1,0-0.2,0c-2.4,0-4.9,0-7.3,0c0-0.1,0-0.1,0-0.2c-0.1-0.4-0.2-0.7-0.2-1.1
			c0-2.3,0-4.6,0-6.9c0-0.1,0-0.1,0-0.2c1.7-1.6,3.4-3.3,5.1-4.9c0,1.7,0,3.3,0,5C26.5,51,26.6,51.8,26.7,52.6L26.7,52.6z"/>
		<path class="st14" d="M26.7,37.1c0,2.2,0,4.5,0,6.7c0,0.3,0.1,0.7,0.2,1c-0.1,0.1-0.1,0.2-0.2,0.2c-0.1,0-0.1,0-0.2,0
			c0-2.2,0-4.3,0-6.5c0-0.3-0.1-0.7-0.2-1l0.2-0.4C26.6,37.1,26.7,37.1,26.7,37.1L26.7,37.1z"/>
		<path class="st16" d="M26.6,45c0.1,0,0.1,0,0.2,0c0,2.5,0,5-0.1,7.5c-0.1-0.8-0.1-1.6-0.2-2.4c0-1.7,0-3.3,0-5
			C26.5,45.2,26.5,45.1,26.6,45L26.6,45z"/>
		<path class="st17" d="M37.5,58.1c0,0.1,0,0.3,0.1,0.4c-0.1,0-0.2-0.1-0.3-0.1L37.5,58.1z"/>
		<path class="st17" d="M29.2,58.5c0.1-0.1,0.1-0.1,0.2-0.2c0,0.1,0,0.1,0,0.2C29.3,58.5,29.3,58.5,29.2,58.5z"/>
		<path class="st16" d="M26.8,53.2c0-0.1,0-0.1,0-0.2C26.7,53,26.8,53.1,26.8,53.2z"/>
		<path class="st16" d="M26.7,53c0-0.1,0-0.1,0-0.2C26.7,52.8,26.7,52.9,26.7,53z"/>
		<path class="st4" d="M55.7,31.8c0.1,0,0.1,0,0.2,0c2.6,0,5.1,0,7.7,0c0,0.1,0,0.1,0,0.2c-2.7,0-5.3,0-8,0
			C55.7,31.9,55.7,31.9,55.7,31.8z"/>
		<path class="st16" d="M26.7,37.1c-0.1,0-0.1,0-0.2,0c0-1.6,0-3.2,0-4.8c0-0.9,0.1-1.7,0.1-2.6c0,2.4,0,4.8,0.1,7.1
			C26.7,36.9,26.7,37,26.7,37.1L26.7,37.1z"/>
		<path class="st16" d="M55.7,15.9c0.1,0,0.1,0,0.2,0c2.6,0,5.1,0,7.7,0c0,0.1,0,0.2,0,0.2c-2.7,0-5.3,0-8,0
			C55.7,16,55.7,16,55.7,15.9L55.7,15.9z"/>
		<path class="st6" d="M21.6,26.3c1.6-1.6,3.1-3.1,4.7-4.7c0.1,0,0.1,0,0.2,0c0,0.1,0,0.1,0,0.2c0,2.4,0,4.9,0,7.3
			c0,0.1,0,0.1,0,0.2c-1.7,1.6-3.4,3.3-5.1,4.9c0-2.5,0-5.1-0.1-7.6C21.5,26.5,21.6,26.4,21.6,26.3L21.6,26.3z"/>
		<path class="st14" d="M26.5,29.1c0-2.4,0-4.9,0-7.3c0.1,0.7,0.2,1.4,0.2,2.1c0,1.4,0,2.7,0,4.1c0,0.3,0.1,0.6,0.2,0.9
			c-0.1,0.1-0.1,0.2-0.2,0.2C26.7,29.2,26.6,29.1,26.5,29.1L26.5,29.1z"/>
		<path class="st16" d="M26.5,21.2c0-2.2,0-4.4,0-6.6c0-0.3,0.1-0.5,0.2-0.8c0,2.4,0,4.8,0.1,7.1c0,0.1,0,0.1,0,0.2
			C26.7,21.2,26.6,21.2,26.5,21.2L26.5,21.2z"/>
		<path class="st14" d="M26.5,21.2c0.1,0,0.1,0,0.2,0c-0.1,0.1-0.1,0.1-0.2,0.2C26.5,21.3,26.5,21.3,26.5,21.2z"/>
		<path class="st14" d="M26.5,21.6c-0.1,0-0.1,0-0.2,0c0.1-0.1,0.1-0.1,0.2-0.2C26.5,21.5,26.5,21.5,26.5,21.6L26.5,21.6z"/>
		<path class="st8" d="M21.4,34.3c1.7-1.6,3.4-3.3,5.1-4.9c0.1,0,0.1,0,0.2,0c0,0.1,0,0.2,0,0.3c-0.1,0.9-0.1,1.7-0.2,2.6
			c0,1.6,0,3.2,0,4.8c-0.1,0.1-0.2,0.3-0.2,0.4c-1.6,1.6-3.1,3.1-4.7,4.7c-0.1-0.3-0.2-0.6-0.2-0.9c0-2.3,0-4.5,0-6.8
			C21.4,34.4,21.4,34.3,21.4,34.3L21.4,34.3z"/>
		<path class="st16" d="M26.7,29.4c-0.1,0-0.1,0-0.2,0c0-0.1,0-0.1,0-0.2c0.1,0,0.1,0,0.2,0C26.7,29.2,26.7,29.3,26.7,29.4z"/>
		<path class="st16" d="M10.6,45.2c0-2.6,0-5.2,0-7.7c0-0.1,0-0.1,0-0.2c0.1,0,0.1,0,0.2,0c0,2.6,0,5.2,0,7.7c0,0.1,0,0.1,0,0.2
			C10.7,45.2,10.7,45.2,10.6,45.2L10.6,45.2z"/>
		<path class="st10" d="M10.8,45c0-2.6,0-5.2,0-7.7c0-0.1,0-0.1,0-0.2c1.7-1.6,3.4-3.3,5.1-4.9c0,2.3,0,4.7,0,7
			c0,0.4-0.2,0.7-0.3,1.1C14,41.9,12.4,43.5,10.8,45z"/>
		<path class="st13" d="M10.6,69.1c0-0.1,0-0.3,0-0.4c0.1-0.4,0.2-0.7,0.2-1.1c0-2.2,0-4.3,0-6.5c0.1-0.1,0.1-0.2,0.2-0.4
			c1.6-1.6,3.1-3.1,4.7-4.7c0.1,0.3,0.2,0.7,0.2,1.1c0,2.2,0,4.3,0,6.5c0.3,0.1,0.7,0.2,1.1,0.2c2.3,0,4.6,0,6.9,0
			c-0.3,0.3-0.5,0.6-0.8,0.9c-1.4,1.5-2.9,2.9-4.3,4.4c-0.1,0-0.1,0-0.2,0C15.9,69.1,13.3,69.1,10.6,69.1L10.6,69.1z"/>
		<path class="st6" d="M23.9,63.8c-2.3,0-4.6,0-6.9,0c-0.3,0-0.7-0.1-1.1-0.2c0.1-0.4,0.2-0.8,0.2-1.2c0-1.9,0-3.9,0-5.8
			c0-0.4,0.1-0.8,0.2-1.2c1.6-1.6,3.1-3.1,4.7-4.7c0.1,0.3,0.2,0.6,0.2,0.9c0,1.9,0,3.9,0,5.9c0,0.3,0.1,0.6,0.2,0.9
			c0.1,0,0.2,0,0.2,0c2.4,0,4.9,0,7.3,0c0,0.1,0,0.1,0,0.2C27.3,60.4,25.6,62.1,23.9,63.8L23.9,63.8z"/>
		<path class="st6" d="M21.6,42.2c1.6-1.6,3.1-3.1,4.7-4.7c0.1,0.3,0.2,0.7,0.2,1c0,2.2,0,4.3,0,6.5c0,0.1,0,0.1,0,0.2
			c-1.7,1.6-3.4,3.3-5.1,4.9c0-2.2,0-4.5,0-6.7c0-0.2,0.3-0.8-0.4-0.7c-1.6,1.6-3.3,3.2-4.9,4.7c0-2.3,0-4.7,0-7
			c0-0.3,0.1-0.6,0.2-1c1.6-1.6,3.1-3.1,4.7-4.7c0.1,0.3,0.2,0.7,0.2,1c0,1.9,0,3.9,0,5.8C21.2,41.8,20.9,42.5,21.6,42.2L21.6,42.2z
			"/>
		<path class="st8" d="M21,34.8c-1.6,1.6-3.1,3.1-4.7,4.7c-0.1-0.3-0.2-0.6-0.2-0.9c0-2.3,0-4.6,0-7c1.4-1.4,2.9-2.8,4.3-4.3
			c0.2-0.2,0.5-0.4,0.8-0.7v0c0,2.6,0,5.2,0,7.8C21.2,34.6,21.1,34.7,21,34.8L21,34.8z"/>
		<path class="st13" d="M16.1,47.5c1.6-1.6,3.3-3.2,4.9-4.7c0.1,0.3,0.2,0.7,0.2,1.1c0,2.2,0,4.3,0,6.5c-0.1,0.1-0.1,0.3-0.2,0.4
			c-1.6,1.6-3.1,3.1-4.7,4.7c-0.1-0.3-0.2-0.6-0.2-0.9C16.1,52.2,16.1,49.8,16.1,47.5L16.1,47.5z"/>
		<path class="st7" d="M10.8,45c1.6-1.6,3.1-3.1,4.7-4.7c0.1,0.3,0.3,0.5,0.3,0.8c0,2.3,0,4.6,0,7c-1.7,1.6-3.4,3.3-5.1,4.9
			c0-2.6,0-5.2,0-7.8C10.8,45.2,10.8,45.1,10.8,45L10.8,45z"/>
		<path class="st11" d="M10.8,53c1.7-1.6,3.4-3.3,5.1-4.9c0,2.4,0,4.7,0,7.1c0,0.3-0.1,0.6-0.2,0.9c-1.6,1.6-3.1,3.1-4.7,4.7
			c-0.1-0.3-0.2-0.7-0.2-1c0-2.2,0-4.4,0-6.5C10.8,53.1,10.8,53,10.8,53L10.8,53z"/>
		<path class="st16" d="M21.2,34.4c0-2.6,0-5.2,0-7.8c0.1,0,0.1,0,0.2,0c0,2.5,0,5.1,0.1,7.6c0,0.1,0,0.1,0,0.2
			C21.4,34.5,21.3,34.5,21.2,34.4L21.2,34.4z"/>
		<path class="st16" d="M10.6,69.1c2.7,0,5.3,0,8,0c0,0.1,0,0.1,0,0.2c-0.1,0-0.1,0-0.2,0c-2.2,0-4.5,0-6.7,0
			C11.3,69.3,11,69.1,10.6,69.1z"/>
		<path class="st15" d="M10.8,61.1c0,2.2,0,4.3,0,6.5c0,0.4-0.1,0.7-0.2,1.1c0-2.4,0-4.9-0.1-7.3c0-0.1,0-0.2,0-0.2
			C10.7,61.1,10.8,61.1,10.8,61.1L10.8,61.1z"/>
		<path class="st15" d="M10.8,53c0,0.1,0,0.1-0.1,0.2c-0.1,0-0.1,0-0.2,0c0-2.6,0-5.1-0.1-7.7c0-0.1,0-0.2,0-0.2c0.1,0,0.1,0,0.2,0
			C10.8,47.8,10.8,50.4,10.8,53z"/>
		<path class="st16" d="M10.6,53.2c0.1,0,0.1,0,0.2,0c0,2.2,0,4.4,0,6.5c0,0.3,0.1,0.7,0.2,1c-0.1,0.1-0.1,0.2-0.2,0.4
			c-0.1,0-0.1,0-0.2,0c0-2.6,0-5.2,0-7.7C10.6,53.3,10.6,53.2,10.6,53.2z"/>
		<path class="st15" d="M18.6,69.3c0-0.1,0-0.1,0-0.2c0.1,0,0.1,0,0.2,0c2.5,0,5,0,7.6,0c0,0.1,0,0.1,0,0.2c0,0-0.1,0-0.1,0
			C23.6,69.3,21.1,69.3,18.6,69.3L18.6,69.3z"/>
		<path class="st16" d="M26.3,69.3c0-0.1,0-0.1,0-0.2c0.1-0.1,0.3-0.2,0.4-0.2c0.3,0.1,0.7,0.2,1,0.2c2.2,0,4.3,0,6.5,0
			c0,0.1,0,0.1,0,0.2c-0.1,0-0.1,0-0.2,0C31.5,69.3,28.9,69.3,26.3,69.3L26.3,69.3z"/>
		<path class="st6" d="M26.7,68.9c-0.1,0.1-0.3,0.2-0.4,0.2c-2.5,0-5,0-7.6,0c1.4-1.5,2.9-2.9,4.3-4.4c0.3-0.3,0.5-0.6,0.8-0.9h7.9
			C30,65.5,28.4,67.2,26.7,68.9L26.7,68.9z"/>
		<path class="st17" d="M29,58.7c0-0.1,0-0.1,0-0.2c0.1,0,0.1,0,0.2,0C29.1,58.5,29,58.6,29,58.7L29,58.7z"/>
		<path class="st15" d="M21,50.7c0.1-0.1,0.1-0.3,0.2-0.4c0.1,0,0.1,0,0.2,0c0,2.3,0,4.6,0,6.9c0,0.4,0.1,0.7,0.2,1.1
			c-0.1,0.1-0.1,0.1-0.2,0.2c-0.1-0.3-0.2-0.6-0.2-0.9c0-1.9,0-3.9,0-5.9C21.2,51.3,21.1,51,21,50.7z"/>
		<path class="st16" d="M21.4,50.3c-0.1,0-0.1,0-0.2,0c0-2.2,0-4.3,0-6.5c0-0.3-0.1-0.7-0.2-1.1c0.7-0.1,0.4,0.4,0.4,0.7
			c0,2.2,0,4.5,0,6.7C21.4,50.2,21.4,50.3,21.4,50.3L21.4,50.3z"/>
		<path class="st17" d="M21.4,58.5c0.1-0.1,0.1-0.1,0.2-0.2c0,0.1,0,0.1,0,0.2C21.6,58.5,21.5,58.5,21.4,58.5z"/>
		<path class="st15" d="M21.2,34.4c0.1,0,0.1,0,0.2,0c0,2.3,0,4.5,0,6.8c0,0.3,0.1,0.6,0.2,0.9c-0.7,0.3-0.4-0.3-0.4-0.5
			c0-1.9,0-3.9,0-5.8c0-0.3-0.1-0.7-0.2-1C21.1,34.7,21.2,34.6,21.2,34.4L21.2,34.4z"/>
	</g>
</g>
</svg>
